<svg xmlns="http://www.w3.org/2000/svg" fill="none" viewBox="0 0 24 24">
  <circle cx="12" cy="12" r="12" fill="#000"/>
  <path fill="#fff" d="m17.383 7.31-1.806.921-8.722 4.442a5.196 5.196 0 0 1 7.685-5.208l1.034-.526.154-.079a6.347 6.347 0 0 0-10.056 5.62 1.15 1.15 0 0 1-.627 1.115l-.545.278v1.297l1.605-.818.52-.265.512-.261L16.33 9.14l1.034-.526L19.5 7.527V6.23zM19.5 8.824 7.66 14.853l-1.034.527L4.5 16.463v1.296l2.111-1.076 1.807-.92 8.73-4.449q.045.34.044.683a5.196 5.196 0 0 1-7.736 4.529l-.064.033-1.12.571a6.346 6.346 0 0 0 10.056-5.62 1.16 1.16 0 0 1 .626-1.116l.546-.278z"/>
</svg>
