<svg xmlns="http://www.w3.org/2000/svg" fill="none" viewBox="0 0 19 17">
  <path fill="#fff" d="M17.406.594H1.594A1.44 1.44 0 0 0 .156 2.03v12.94a1.437 1.437 0 0 0 1.438 1.437h15.812a1.437 1.437 0 0 0 1.438-1.437V2.03A1.44 1.44 0 0 0 17.406.594m0 1.437v9.232L15.064 8.92a1.437 1.437 0 0 0-2.033 0l-1.797 1.797-3.953-3.953a1.44 1.44 0 0 0-2.032 0L1.594 10.42V2.031zM1.594 12.453l4.672-4.672 7.187 7.188H1.593zm15.812 2.516h-1.92l-3.234-3.235 1.797-1.796 3.357 3.358zm-6.468-8.985a1.078 1.078 0 1 1 2.155 0 1.078 1.078 0 0 1-2.155 0"/>
</svg>
